<?xml version="1.0" encoding="UTF-8"?>
<svg width="30px" height="30px" viewBox="0 0 30 30" version="1.1" xmlns="http://www.w3.org/2000/svg" xmlns:xlink="http://www.w3.org/1999/xlink">
    <!-- Generator: Sketch 55.2 (78181) - https://sketchapp.com -->
    <title>fb</title>
    <desc>Created with Sketch.</desc>
    <g id="Symbols" stroke="none" stroke-width="1" fill="none" fill-rule="evenodd" opacity="0.974028088">
        <g id="comp/footer" transform="translate(-868.000000, -1.000000)" fill="#2561A6">
            <g id="Group-4">
                <g transform="translate(783.000000, 0.000000)">
                    <g id="Group-25" transform="translate(85.000000, 1.000000)">
                        <g id="fb">
                            <path d="M14.8932743,29.7865487 C6.66794605,29.7865487 -7.21200877e-13,23.1186026 -7.21200877e-13,14.8932743 C-7.21200877e-13,6.66794605 6.66794605,1.88293825e-13 14.8932743,1.88293825e-13 C23.1186026,1.88293825e-13 29.7865487,6.66794605 29.7865487,14.8932743 C29.7865487,23.1186026 23.1186026,29.7865487 14.8932743,29.7865487 Z M18.1309697,14.6293017 L18.3817812,12.1919815 L16.2363488,12.1919815 L16.2363488,10.7562037 C16.2363488,10.2176688 16.5922173,10.0912219 16.8453003,10.0912219 L18.3882171,10.0912219 L18.3882171,7.72318243 L16.2617139,7.71428571 C13.9016247,7.71428571 13.3653612,9.48208114 13.3653612,10.611017 L13.3653612,12.18971 L12,12.18971 L12,14.6293017 L13.3653612,14.6293017 L13.3653612,21.5710079 L16.2361595,21.5710079 L16.2361595,14.6293017 L18.1309697,14.6293017 Z" id="Combined-Shape"></path>
                        </g>
                    </g>
                </g>
            </g>
        </g>
    </g>
</svg>