<?xml version="1.0" encoding="UTF-8"?>
<svg width="30px" height="30px" viewBox="0 0 30 30" version="1.1" xmlns="http://www.w3.org/2000/svg" xmlns:xlink="http://www.w3.org/1999/xlink">
    <!-- Generator: Sketch 55.2 (78181) - https://sketchapp.com -->
    <title>instagram</title>
    <desc>Created with Sketch.</desc>
    <defs>
        <linearGradient x1="0%" y1="133.482749%" x2="100%" y2="-33.397228%" id="linearGradient-1">
            <stop stop-color="#DB8848" offset="0%"></stop>
            <stop stop-color="#C6326B" offset="62.4174897%"></stop>
            <stop stop-color="#7B2ABF" offset="100%"></stop>
        </linearGradient>
    </defs>
    <g id="Symbols" stroke="none" stroke-width="1" fill="none" fill-rule="evenodd" opacity="0.974028088">
        <g id="comp/footer" transform="translate(-918.000000, -1.000000)" fill="url(#linearGradient-1)">
            <g id="Group-4">
                <g transform="translate(783.000000, 0.000000)">
                    <g id="Group-25" transform="translate(85.000000, 1.000000)">
                        <g id="instagram" transform="translate(50.000000, 0.000000)">
                            <path d="M19.4183333,7.96 L10.501,7.96 C9.07766667,7.96 7.91966667,9.118 7.91966667,10.5413333 L7.91966667,19.4586667 C7.91966667,20.882 9.07766667,22.0403333 10.501,22.0403333 L19.4183333,22.0403333 C20.8416667,22.0403333 22,20.8823333 22,19.4586667 L22,10.5413333 C22,9.118 20.842,7.96 19.4183333,7.96 Z M14.9596667,19.6353333 C12.404,19.6353333 10.3246667,17.556 10.3246667,15 C10.3246667,12.4443333 12.404,10.365 14.9596667,10.365 C17.5156667,10.365 19.595,12.4443333 19.595,15 C19.595,17.5556667 17.5153333,19.6353333 14.9596667,19.6353333 Z M19.744,11.3233333 C19.139,11.3233333 18.647,10.8313333 18.647,10.2266667 C18.647,9.622 19.139,9.13 19.744,9.13 C20.3486667,9.13 20.8406667,9.622 20.8406667,10.2266667 C20.8406667,10.8313333 20.3486667,11.3233333 19.744,11.3233333 Z" id="Shape" fill-rule="nonzero"></path>
                            <path d="M14.9596667,12.3236667 C13.4843333,12.3236667 12.283,13.5243333 12.283,14.9996667 C12.283,16.4756667 13.4843333,17.6766667 14.9596667,17.6766667 C16.4356667,17.6766667 17.636,16.4756667 17.636,14.9996667 C17.636,13.5246667 16.4353333,12.3236667 14.9596667,12.3236667 Z" id="Path"></path>
                            <path d="M14.9596667,0 C6.698,0 0,6.698 0,14.9596667 C0,23.2213333 6.698,29.9193333 14.9596667,29.9193333 C23.2213333,29.9193333 29.9193333,23.2213333 29.9193333,14.9596667 C29.9193333,6.698 23.2213333,0 14.9596667,0 Z M23.9583333,19.4586667 C23.9583333,21.9623333 21.922,23.9986667 19.4183333,23.9986667 L10.501,23.9986667 C7.99766667,23.9986667 5.961,21.9623333 5.961,19.4586667 L5.961,10.5413333 C5.961,8.038 7.99766667,6.00133333 10.501,6.00133333 L19.4183333,6.00133333 C21.922,6.00133333 23.9583333,8.038 23.9583333,10.5413333 L23.9583333,19.4586667 Z" id="Shape" fill-rule="nonzero"></path>
                        </g>
                    </g>
                </g>
            </g>
        </g>
    </g>
</svg>