<?xml version="1.0" encoding="UTF-8"?>
<svg width="30px" height="30px" viewBox="0 0 30 30" version="1.1" xmlns="http://www.w3.org/2000/svg" xmlns:xlink="http://www.w3.org/1999/xlink">
    <!-- Generator: Sketch 55.2 (78181) - https://sketchapp.com -->
    <title>youtube-symbol</title>
    <desc>Created with Sketch.</desc>
    <g id="Symbols" stroke="none" stroke-width="1" fill="none" fill-rule="evenodd">
        <g id="comp/footer" transform="translate(-968.000000, -1.000000)" fill="#D0021B">
            <g id="Group-4">
                <g transform="translate(783.000000, 0.000000)">
                    <g id="Group-25" transform="translate(85.000000, 1.000000)">
                        <g id="youtube-symbol" transform="translate(100.000000, 0.000000)">
                            <path d="M12,18 C14.3398204,16.8335889 16.6592225,15.6779126 19,14.5108881 C16.6522036,13.3331289 14.3334397,12.170705 12,11 C12,13.34141 12,15.6588967 12,18 Z" id="Path"></path>
                            <path d="M15,0 C6.71601023,0 0,6.71570332 0,15 C0,23.2842967 6.71601023,30 15,30 C23.2839898,30 30,23.2842967 30,15 C30,6.71570332 23.2839898,0 15,0 Z M25.2202558,20.0068542 C24.9606138,21.1331969 24.0392839,21.9639898 22.9304348,22.0876726 C20.3042455,22.3813811 17.646445,22.3829156 14.9993862,22.3813811 C12.3523274,22.3829156 9.69391304,22.3813811 7.06710997,22.0876726 C5.95826087,21.9639898 5.03754476,21.1331969 4.77851662,20.0068542 C4.40930946,18.4023529 4.40930946,16.6514578 4.40930946,15 C4.40930946,13.3485422 4.41360614,11.5970332 4.7828133,9.99314578 C5.04184143,8.86680307 5.96255754,8.03570332 7.07140665,7.91171355 C9.69820972,7.61831202 12.356624,7.61677749 15.0036829,7.61831202 C17.6501279,7.61677749 20.3085422,7.61831202 22.9344246,7.91171355 C24.0438875,8.03570332 24.9652174,8.86649616 25.2242455,9.99314578 C25.5934527,11.5973402 25.590384,13.3485422 25.590384,15 C25.590384,16.6514578 25.5894629,18.4026598 25.2202558,20.0068542 Z" id="Shape" fill-rule="nonzero"></path>
                        </g>
                    </g>
                </g>
            </g>
        </g>
    </g>
</svg>